# xmcd CD database file
#
# Track frame offsets:
#	150
#	19596
#	38731
#	62503
#	81018
#	101675
#	117238
#	134425
#	158407
#	174101
#	187368
#	204835
#	217492
#	239593
#	255387
#	268742
#	282211
#	297427
#	308210
#
# Disc length: 4333 seconds
#
# Revision: 0
# Processed by: cddbd v1.5.1PL2 Copyright (c) Steve Scherf et al.
# Submitted via: CDex 1.50beta10
#
DISCID=1410eb13
DTITLE=Various Artist - Franky Country Gold #31
DYEAR=1900
DGENRE=Country
TTITLE0=Bellamy  Brothers - Almost  Jamaica
TTITLE1=Gary Allen - Smoke Rings In The Dark
TTITLE2=Claudia Church - Home In My Heart (North Carolina)
TTITLE3=George Ducas - Lipstick Promises
TTITLE4=Suzy Boggus - Letting Go
TTITLE5=Denna Carter - Count Me In
TTITLE6=Brooks And Dunn - Missing You
TTITLE7=David Alan Coe - You Never Even Call Me By My Name
TTITLE8=Reba McEntire - What Do You Say
TTITLE9=Sawyer Brown - The Race Is On
TTITLE10=Leann Rimes - Unchained Melody
TTITLE11=Clay Walker - Only On Days That End In
TTITLE12=Travis Tritt - Tell Me I Was Dreaming
TTITLE13=The Judds - Why Not Me
TTITLE14=Sammy Kershaw - One Day Left To Live
TTITLE15=Hank Williams Jr - All My Rowdy Friends Are Coming Over To
TTITLE16=Waylon Jennings - Lukenbach Texas
TTITLE17=Clay Walker - If I Could Make A Living
TTITLE18=Ricochet - Rowdy
EXTD=
EXTT0=
EXTT1=
EXTT2=
EXTT3=
EXTT4=
EXTT5=
EXTT6=
EXTT7=
EXTT8=
EXTT9=
EXTT10=
EXTT11=
EXTT12=
EXTT13=
EXTT14=
EXTT15=
EXTT16=
EXTT17=
EXTT18=
PLAYORDER=
